ISO-10303-21;
HEADER;
FILE_DESCRIPTION(('FreeCAD Model'),'2;1');
FILE_NAME('Open CASCADE Shape Model','2026-08-21T10:50:59',('FreeCAD'),(
    'FreeCAD'),'Open CASCADE STEP processor 7.8','FreeCAD','Unknown');
FILE_SCHEMA(('AUTOMOTIVE_DESIGN { 1 0 10303 214 1 1 1 1 }'));
ENDSEC;
DATA;
#1 = APPLICATION_PROTOCOL_DEFINITION('international standard',
  'automotive_design',2000,#2);
#2 = APPLICATION_CONTEXT(
  'core data for automotive mechanical design processes');
#3 = SHAPE_DEFINITION_REPRESENTATION(#4,#10);
#4 = PRODUCT_DEFINITION_SHAPE('','',#5);
#5 = PRODUCT_DEFINITION('design','',#6,#9);
#6 = PRODUCT_DEFINITION_FORMATION('','',#7);
#7 = PRODUCT('Open CASCADE STEP translator 7.8 1',
  'Open CASCADE STEP translator 7.8 1','',(#8));
#8 = PRODUCT_CONTEXT('',#2,'mechanical');
#9 = PRODUCT_DEFINITION_CONTEXT('part definition',#2,'design');
#10 = ADVANCED_BREP_SHAPE_REPRESENTATION('',(#11,#15),#260);
#11 = AXIS2_PLACEMENT_3D('',#12,#13,#14);
#12 = CARTESIAN_POINT('',(0.,0.,0.));
#13 = DIRECTION('',(0.,0.,1.));
#14 = DIRECTION('',(1.,0.,-0.));
#15 = MANIFOLD_SOLID_BREP('',#16);
#16 = CLOSED_SHELL('',(#17,#59,#91,#121,#130,#155,#187,#221,#251));
#17 = ADVANCED_FACE('',(#18),#54,.F.);
#18 = FACE_BOUND('',#19,.F.);
#19 = EDGE_LOOP('',(#20,#31,#38,#46,#53));
#20 = ORIENTED_EDGE('',*,*,#21,.T.);
#21 = EDGE_CURVE('',#22,#24,#26,.T.);
#22 = VERTEX_POINT('',#23);
#23 = CARTESIAN_POINT('',(-36.54505657015,51.002105255011,0.));
#24 = VERTEX_POINT('',#25);
#25 = CARTESIAN_POINT('',(-25.54653394209,44.652105255011,0.));
#26 = CIRCLE('',#27,6.35);
#27 = AXIS2_PLACEMENT_3D('',#28,#29,#30);
#28 = CARTESIAN_POINT('',(-31.04579525612,47.827105255011,0.));
#29 = DIRECTION('',(-0.5,-0.866025403784,0.));
#30 = DIRECTION('',(0.866025403784,-0.5,0.));
#31 = ORIENTED_EDGE('',*,*,#32,.T.);
#32 = EDGE_CURVE('',#24,#22,#33,.T.);
#33 = CIRCLE('',#34,6.35);
#34 = AXIS2_PLACEMENT_3D('',#35,#36,#37);
#35 = CARTESIAN_POINT('',(-31.04579525612,47.827105255011,0.));
#36 = DIRECTION('',(-0.5,-0.866025403784,0.));
#37 = DIRECTION('',(0.866025403784,-0.5,0.));
#38 = ORIENTED_EDGE('',*,*,#39,.T.);
#39 = EDGE_CURVE('',#22,#40,#42,.T.);
#40 = VERTEX_POINT('',#41);
#41 = CARTESIAN_POINT('',(-27.49630657015,66.675,0.));
#42 = LINE('',#43,#44);
#43 = CARTESIAN_POINT('',(-36.54505657015,51.002105255011,0.));
#44 = VECTOR('',#45,1.);
#45 = DIRECTION('',(0.5,0.866025403784,0.));
#46 = ORIENTED_EDGE('',*,*,#47,.T.);
#47 = EDGE_CURVE('',#40,#40,#48,.T.);
#48 = CIRCLE('',#49,6.35);
#49 = AXIS2_PLACEMENT_3D('',#50,#51,#52);
#50 = CARTESIAN_POINT('',(-21.99704525612,63.5,0.));
#51 = DIRECTION('',(-0.5,-0.866025403784,0.));
#52 = DIRECTION('',(0.866025403784,-0.5,0.));
#53 = ORIENTED_EDGE('',*,*,#39,.F.);
#54 = CYLINDRICAL_SURFACE('',#55,6.35);
#55 = AXIS2_PLACEMENT_3D('',#56,#57,#58);
#56 = CARTESIAN_POINT('',(-21.99704525612,63.5,0.));
#57 = DIRECTION('',(-0.5,-0.866025403784,-0.));
#58 = DIRECTION('',(0.866025403784,-0.5,0.));
#59 = ADVANCED_FACE('',(#60),#86,.T.);
#60 = FACE_BOUND('',#61,.T.);
#61 = EDGE_LOOP('',(#62,#63,#78,#85));
#62 = ORIENTED_EDGE('',*,*,#47,.T.);
#63 = ORIENTED_EDGE('',*,*,#64,.T.);
#64 = EDGE_CURVE('',#40,#65,#67,.T.);
#65 = VERTEX_POINT('',#66);
#66 = CARTESIAN_POINT('',(27.496306570156,34.925,0.));
#67 = B_SPLINE_CURVE_WITH_KNOTS('',9,(#68,#69,#70,#71,#72,#73,#74,#75,
    #76,#77),.UNSPECIFIED.,.F.,.F.,(10,10),(2.617993877991,
    5.759586531581),.PIECEWISE_BEZIER_KNOTS.);
#68 = CARTESIAN_POINT('',(-27.49630657015,66.675,-1.555301434917E-15));
#69 = CARTESIAN_POINT('',(-33.03772694523,57.076978364261,
    -1.555301434917E-15));
#70 = CARTESIAN_POINT('',(-34.81008078296,45.302752340163,
    -1.555301434917E-15));
#71 = CARTESIAN_POINT('',(-31.83613436054,33.044693918121,
    -1.555301434917E-15));
#72 = CARTESIAN_POINT('',(-24.02760207727,22.502517189148,
    -1.555301434917E-15));
#73 = CARTESIAN_POINT('',(-12.49253793871,15.842744803635,
    -1.555301434917E-15));
#74 = CARTESIAN_POINT('',(0.541521061394,14.351445844536,
    -1.555301434917E-15));
#75 = CARTESIAN_POINT('',(12.64428426717,17.904961904246,
    -1.555301434917E-15));
#76 = CARTESIAN_POINT('',(21.954886195074,25.32697836426,
    -1.555301434917E-15));
#77 = CARTESIAN_POINT('',(27.496306570156,34.925,-1.555301434917E-15));
#78 = ORIENTED_EDGE('',*,*,#79,.F.);
#79 = EDGE_CURVE('',#65,#65,#80,.T.);
#80 = CIRCLE('',#81,6.35);
#81 = AXIS2_PLACEMENT_3D('',#82,#83,#84);
#82 = CARTESIAN_POINT('',(21.997045256125,38.1,0.));
#83 = DIRECTION('',(0.5,0.866025403784,0.));
#84 = DIRECTION('',(-0.866025403784,0.5,0.));
#85 = ORIENTED_EDGE('',*,*,#64,.F.);
#86 = TOROIDAL_SURFACE('',#87,25.4,6.35);
#87 = AXIS2_PLACEMENT_3D('',#88,#89,#90);
#88 = CARTESIAN_POINT('',(0.,50.8,0.));
#89 = DIRECTION('',(0.,0.,1.));
#90 = DIRECTION('',(1.,0.,-0.));
#91 = ADVANCED_FACE('',(#92),#116,.T.);
#92 = FACE_BOUND('',#93,.T.);
#93 = EDGE_LOOP('',(#94,#95,#107,#114,#115));
#94 = ORIENTED_EDGE('',*,*,#21,.T.);
#95 = ORIENTED_EDGE('',*,*,#96,.T.);
#96 = EDGE_CURVE('',#24,#97,#99,.T.);
#97 = VERTEX_POINT('',#98);
#98 = CARTESIAN_POINT('',(-26.84767313919,44.303466057906,0.));
#99 = ( BOUNDED_CURVE() B_SPLINE_CURVE(6,(#100,#101,#102,#103,#104,#105,
#106),.UNSPECIFIED.,.F.,.F.) B_SPLINE_CURVE_WITH_KNOTS((7,7),(
1.864941563675E-15,1.570796326795),.PIECEWISE_BEZIER_KNOTS.) CURVE() 
GEOMETRIC_REPRESENTATION_ITEM() RATIONAL_B_SPLINE_CURVE((1.031393471788,
    1.010025407661,0.997924642725,0.993958444137,0.997924642725,
1.010025407661,1.031393471788)) REPRESENTATION_ITEM('') );
#100 = CARTESIAN_POINT('',(-25.54653394209,44.652105255011,0.));
#101 = CARTESIAN_POINT('',(-25.67385308507,44.4315820306,0.));
#102 = CARTESIAN_POINT('',(-25.86797432033,44.257287476258,0.));
#103 = CARTESIAN_POINT('',(-26.10927452382,44.150003303316,0.));
#104 = CARTESIAN_POINT('',(-26.37188871646,44.122264020759,0.));
#105 = CARTESIAN_POINT('',(-26.62714991478,44.17614691493,0.));
#106 = CARTESIAN_POINT('',(-26.84767313919,44.303466057906,0.));
#107 = ORIENTED_EDGE('',*,*,#108,.F.);
#108 = EDGE_CURVE('',#97,#97,#109,.T.);
#109 = CIRCLE('',#110,5.3975);
#110 = AXIS2_PLACEMENT_3D('',#111,#112,#113);
#111 = CARTESIAN_POINT('',(-31.52204525612,47.002216057906,0.));
#112 = DIRECTION('',(-0.5,-0.866025403784,0.));
#113 = DIRECTION('',(0.866025403784,-0.5,0.));
#114 = ORIENTED_EDGE('',*,*,#96,.F.);
#115 = ORIENTED_EDGE('',*,*,#32,.T.);
#116 = TOROIDAL_SURFACE('',#117,5.3975,0.9525);
#117 = AXIS2_PLACEMENT_3D('',#118,#119,#120);
#118 = CARTESIAN_POINT('',(-31.04579525612,47.827105255011,0.));
#119 = DIRECTION('',(-0.5,-0.866025403784,0.));
#120 = DIRECTION('',(0.866025403784,-0.5,0.));
#121 = ADVANCED_FACE('',(#122),#125,.T.);
#122 = FACE_BOUND('',#123,.T.);
#123 = EDGE_LOOP('',(#124));
#124 = ORIENTED_EDGE('',*,*,#108,.T.);
#125 = PLANE('',#126);
#126 = AXIS2_PLACEMENT_3D('',#127,#128,#129);
#127 = CARTESIAN_POINT('',(-31.52204525612,47.002216057906,0.));
#128 = DIRECTION('',(-0.5,-0.866025403784,0.));
#129 = DIRECTION('',(0.866025403784,-0.5,0.));
#130 = ADVANCED_FACE('',(#131),#150,.F.);
#131 = FACE_BOUND('',#132,.F.);
#132 = EDGE_LOOP('',(#133,#134,#142,#149));
#133 = ORIENTED_EDGE('',*,*,#79,.F.);
#134 = ORIENTED_EDGE('',*,*,#135,.T.);
#135 = EDGE_CURVE('',#65,#136,#138,.T.);
#136 = VERTEX_POINT('',#137);
#137 = CARTESIAN_POINT('',(-16.49778394209,-41.275,0.));
#138 = LINE('',#139,#140);
#139 = CARTESIAN_POINT('',(27.496306570156,34.925,0.));
#140 = VECTOR('',#141,1.);
#141 = DIRECTION('',(-0.5,-0.866025403784,0.));
#142 = ORIENTED_EDGE('',*,*,#143,.T.);
#143 = EDGE_CURVE('',#136,#136,#144,.T.);
#144 = CIRCLE('',#145,6.35);
#145 = AXIS2_PLACEMENT_3D('',#146,#147,#148);
#146 = CARTESIAN_POINT('',(-21.99704525612,-38.1,0.));
#147 = DIRECTION('',(0.5,0.866025403784,0.));
#148 = DIRECTION('',(-0.866025403784,0.5,0.));
#149 = ORIENTED_EDGE('',*,*,#135,.F.);
#150 = CYLINDRICAL_SURFACE('',#151,6.35);
#151 = AXIS2_PLACEMENT_3D('',#152,#153,#154);
#152 = CARTESIAN_POINT('',(-21.99704525612,-38.1,0.));
#153 = DIRECTION('',(0.5,0.866025403784,-0.));
#154 = DIRECTION('',(-0.866025403784,0.5,0.));
#155 = ADVANCED_FACE('',(#156),#182,.T.);
#156 = FACE_BOUND('',#157,.T.);
#157 = EDGE_LOOP('',(#158,#159,#174,#181));
#158 = ORIENTED_EDGE('',*,*,#143,.T.);
#159 = ORIENTED_EDGE('',*,*,#160,.T.);
#160 = EDGE_CURVE('',#136,#161,#163,.T.);
#161 = VERTEX_POINT('',#162);
#162 = CARTESIAN_POINT('',(16.497783942094,-60.325,0.));
#163 = B_SPLINE_CURVE_WITH_KNOTS('',9,(#164,#165,#166,#167,#168,#169,
    #170,#171,#172,#173),.UNSPECIFIED.,.F.,.F.,(10,10),(0.523598775598,
    3.665191429188),.PIECEWISE_BEZIER_KNOTS.);
#164 = CARTESIAN_POINT('',(-16.49778394209,-41.275,-7.776507174586E-16)
  );
#165 = CARTESIAN_POINT('',(-13.17293171704,-35.51618701855,
    -7.776507174586E-16));
#166 = CARTESIAN_POINT('',(-7.586570560302,-31.06297714254,
    -7.776507174585E-16));
#167 = CARTESIAN_POINT('',(-0.324912636836,-28.93086750672,
    -7.776507174587E-16));
#168 = CARTESIAN_POINT('',(7.495522763228,-29.82564688217,
    -7.776507174584E-16));
#169 = CARTESIAN_POINT('',(14.416561246363,-33.82151031349,
    -7.776507174587E-16));
#170 = CARTESIAN_POINT('',(19.101680616324,-40.14681635086,
    -7.776507174585E-16));
#171 = CARTESIAN_POINT('',(20.886048469779,-47.5016514041,
    -7.776507174586E-16));
#172 = CARTESIAN_POINT('',(19.822636167143,-54.56618701855,
    -7.776507174586E-16));
#173 = CARTESIAN_POINT('',(16.497783942094,-60.325,-7.776507174586E-16)
  );
#174 = ORIENTED_EDGE('',*,*,#175,.F.);
#175 = EDGE_CURVE('',#161,#161,#176,.T.);
#176 = CIRCLE('',#177,6.35);
#177 = AXIS2_PLACEMENT_3D('',#178,#179,#180);
#178 = CARTESIAN_POINT('',(21.997045256125,-63.5,0.));
#179 = DIRECTION('',(-0.5,-0.866025403784,0.));
#180 = DIRECTION('',(0.866025403784,-0.5,0.));
#181 = ORIENTED_EDGE('',*,*,#160,.F.);
#182 = TOROIDAL_SURFACE('',#183,25.4,6.35);
#183 = AXIS2_PLACEMENT_3D('',#184,#185,#186);
#184 = CARTESIAN_POINT('',(3.469446951954E-15,-50.8,0.));
#185 = DIRECTION('',(-0.,-0.,-1.));
#186 = DIRECTION('',(-1.,0.,0.));
#187 = ADVANCED_FACE('',(#188),#216,.F.);
#188 = FACE_BOUND('',#189,.F.);
#189 = EDGE_LOOP('',(#190,#201,#208,#214,#215));
#190 = ORIENTED_EDGE('',*,*,#191,.T.);
#191 = EDGE_CURVE('',#192,#194,#196,.T.);
#192 = VERTEX_POINT('',#193);
#193 = CARTESIAN_POINT('',(25.546533942094,-44.65210525501,0.));
#194 = VERTEX_POINT('',#195);
#195 = CARTESIAN_POINT('',(36.545056570156,-51.00210525501,0.));
#196 = CIRCLE('',#197,6.35);
#197 = AXIS2_PLACEMENT_3D('',#198,#199,#200);
#198 = CARTESIAN_POINT('',(31.045795256125,-47.82710525501,0.));
#199 = DIRECTION('',(-0.5,-0.866025403784,0.));
#200 = DIRECTION('',(0.866025403784,-0.5,0.));
#201 = ORIENTED_EDGE('',*,*,#202,.T.);
#202 = EDGE_CURVE('',#194,#192,#203,.T.);
#203 = CIRCLE('',#204,6.35);
#204 = AXIS2_PLACEMENT_3D('',#205,#206,#207);
#205 = CARTESIAN_POINT('',(31.045795256125,-47.82710525501,0.));
#206 = DIRECTION('',(-0.5,-0.866025403784,0.));
#207 = DIRECTION('',(0.866025403784,-0.5,0.));
#208 = ORIENTED_EDGE('',*,*,#209,.T.);
#209 = EDGE_CURVE('',#192,#161,#210,.T.);
#210 = LINE('',#211,#212);
#211 = CARTESIAN_POINT('',(25.546533942094,-44.65210525501,0.));
#212 = VECTOR('',#213,1.);
#213 = DIRECTION('',(-0.5,-0.866025403784,0.));
#214 = ORIENTED_EDGE('',*,*,#175,.F.);
#215 = ORIENTED_EDGE('',*,*,#209,.F.);
#216 = CYLINDRICAL_SURFACE('',#217,6.35);
#217 = AXIS2_PLACEMENT_3D('',#218,#219,#220);
#218 = CARTESIAN_POINT('',(31.522045256125,-47.0022160579,0.));
#219 = DIRECTION('',(-0.5,-0.866025403784,0.));
#220 = DIRECTION('',(0.866025403784,-0.5,0.));
#221 = ADVANCED_FACE('',(#222),#246,.F.);
#222 = FACE_BOUND('',#223,.F.);
#223 = EDGE_LOOP('',(#224,#233,#243,#244,#245));
#224 = ORIENTED_EDGE('',*,*,#225,.T.);
#225 = EDGE_CURVE('',#226,#226,#228,.T.);
#226 = VERTEX_POINT('',#227);
#227 = CARTESIAN_POINT('',(36.196417373051,-49.7009660579,0.));
#228 = CIRCLE('',#229,5.3975);
#229 = AXIS2_PLACEMENT_3D('',#230,#231,#232);
#230 = CARTESIAN_POINT('',(31.522045256125,-47.0022160579,0.));
#231 = DIRECTION('',(-0.5,-0.866025403784,0.));
#232 = DIRECTION('',(0.866025403784,-0.5,0.));
#233 = ORIENTED_EDGE('',*,*,#234,.T.);
#234 = EDGE_CURVE('',#226,#194,#235,.T.);
#235 = ( BOUNDED_CURVE() B_SPLINE_CURVE(6,(#236,#237,#238,#239,#240,#241
,#242),.UNSPECIFIED.,.F.,.F.) B_SPLINE_CURVE_WITH_KNOTS((7,7),(
4.712388980385,6.28318530718),.PIECEWISE_BEZIER_KNOTS.) CURVE() 
GEOMETRIC_REPRESENTATION_ITEM() RATIONAL_B_SPLINE_CURVE((1.031393471788,
    1.010025407661,0.997924642725,0.993958444137,0.997924642725,
1.010025407661,1.031393471788)) REPRESENTATION_ITEM('') );
#236 = CARTESIAN_POINT('',(36.196417373051,-49.7009660579,0.));
#237 = CARTESIAN_POINT('',(36.416940597463,-49.82828520088,0.));
#238 = CARTESIAN_POINT('',(36.591235151805,-50.02240643614,0.));
#239 = CARTESIAN_POINT('',(36.698519324747,-50.26370663964,0.));
#240 = CARTESIAN_POINT('',(36.726258607304,-50.52632083227,0.));
#241 = CARTESIAN_POINT('',(36.672375713133,-50.7815820306,0.));
#242 = CARTESIAN_POINT('',(36.545056570156,-51.00210525501,0.));
#243 = ORIENTED_EDGE('',*,*,#191,.F.);
#244 = ORIENTED_EDGE('',*,*,#202,.F.);
#245 = ORIENTED_EDGE('',*,*,#234,.F.);
#246 = TOROIDAL_SURFACE('',#247,5.3975,0.9525);
#247 = AXIS2_PLACEMENT_3D('',#248,#249,#250);
#248 = CARTESIAN_POINT('',(31.045795256125,-47.82710525501,0.));
#249 = DIRECTION('',(-0.5,-0.866025403784,0.));
#250 = DIRECTION('',(0.866025403784,-0.5,0.));
#251 = ADVANCED_FACE('',(#252),#255,.T.);
#252 = FACE_BOUND('',#253,.T.);
#253 = EDGE_LOOP('',(#254));
#254 = ORIENTED_EDGE('',*,*,#225,.T.);
#255 = PLANE('',#256);
#256 = AXIS2_PLACEMENT_3D('',#257,#258,#259);
#257 = CARTESIAN_POINT('',(31.522045256125,-47.0022160579,0.));
#258 = DIRECTION('',(-0.5,-0.866025403784,0.));
#259 = DIRECTION('',(0.866025403784,-0.5,0.));
#260 = ( GEOMETRIC_REPRESENTATION_CONTEXT(3) 
GLOBAL_UNCERTAINTY_ASSIGNED_CONTEXT((#264)) GLOBAL_UNIT_ASSIGNED_CONTEXT
((#261,#262,#263)) REPRESENTATION_CONTEXT('Context #1',
  '3D Context with UNIT and UNCERTAINTY') );
#261 = ( LENGTH_UNIT() NAMED_UNIT(*) SI_UNIT(.MILLI.,.METRE.) );
#262 = ( NAMED_UNIT(*) PLANE_ANGLE_UNIT() SI_UNIT($,.RADIAN.) );
#263 = ( NAMED_UNIT(*) SI_UNIT($,.STERADIAN.) SOLID_ANGLE_UNIT() );
#264 = UNCERTAINTY_MEASURE_WITH_UNIT(LENGTH_MEASURE(1.E-06),#261,
  'distance_accuracy_value','confusion accuracy');
#265 = PRODUCT_RELATED_PRODUCT_CATEGORY('part',$,(#7));
ENDSEC;
END-ISO-10303-21;
